<svg width="24" height="24" viewBox="0 0 24 24" fill="none" xmlns="http://www.w3.org/2000/svg">
<g id="icons/more-v">
<path id="Shape" d="M12.5 16.25C13.4665 16.25 14.25 17.0335 14.25 18C14.25 18.9665 13.4665 19.75 12.5 19.75C11.5335 19.75 10.75 18.9665 10.75 18C10.75 17.0335 11.5335 16.25 12.5 16.25ZM12.5 10.25C13.4665 10.25 14.25 11.0335 14.25 12C14.25 12.9665 13.4665 13.75 12.5 13.75C11.5335 13.75 10.75 12.9665 10.75 12C10.75 11.0335 11.5335 10.25 12.5 10.25ZM14.25 6C14.25 5.0335 13.4665 4.25 12.5 4.25C11.5335 4.25 10.75 5.0335 10.75 6C10.75 6.9665 11.5335 7.75 12.5 7.75C13.4665 7.75 14.25 6.9665 14.25 6Z" fill="#C7C8CA"/>
</g>
</svg>
